<svg xmlns="http://www.w3.org/2000/svg" viewBox="0 0 420 260" role="img" aria-label="Flores de girasol">
  <defs>
    <linearGradient id="sky2" x1="0" y1="0" x2="0" y2="1">
      <stop offset="0%" stop-color="#c4ebff"/>
      <stop offset="100%" stop-color="#ffffff"/>
    </linearGradient>
  </defs>
  <rect width="420" height="260" fill="url(#sky2)"/>
  <circle cx="345" cy="44" r="28" fill="#fff5b7" opacity="0.9"/>
  <rect x="0" y="180" width="420" height="80" fill="#7dc66a"/>
  <path d="M0 193 C70 165, 140 205, 210 183 S350 196, 420 176 L420 260 L0 260 Z" fill="#6db457" opacity="0.7"/>
  
      <g>
        <rect x="90" y="167" width="6" height="105" rx="3" fill="#3f8d48"/>
        <ellipse cx="75" cy="214" rx="18" ry="8" fill="#4aa657" transform="rotate(-28 75 214)"/>
        <ellipse cx="111" cy="237" rx="18" ry="8" fill="#4aa657" transform="rotate(28 111 237)"/>
        <ellipse cx="122.5" cy="142.0" rx="12.0" ry="23.0" fill="#f7bf24" transform="rotate(0 122.5 142.0)"/><ellipse cx="118.5" cy="156.7" rx="12.0" ry="23.0" fill="#f7bf24" transform="rotate(30 118.5 156.7)"/><ellipse cx="107.7" cy="167.5" rx="12.0" ry="23.0" fill="#f7bf24" transform="rotate(60 107.7 167.5)"/><ellipse cx="93.0" cy="171.5" rx="12.0" ry="23.0" fill="#f7bf24" transform="rotate(90 93.0 171.5)"/><ellipse cx="78.3" cy="167.5" rx="12.0" ry="23.0" fill="#f7bf24" transform="rotate(120 78.3 167.5)"/><ellipse cx="67.5" cy="156.7" rx="12.0" ry="23.0" fill="#f7bf24" transform="rotate(150 67.5 156.7)"/><ellipse cx="63.5" cy="142.0" rx="12.0" ry="23.0" fill="#f7bf24" transform="rotate(180 63.5 142.0)"/><ellipse cx="67.5" cy="127.3" rx="12.0" ry="23.0" fill="#f7bf24" transform="rotate(210 67.5 127.3)"/><ellipse cx="78.3" cy="116.5" rx="12.0" ry="23.0" fill="#f7bf24" transform="rotate(240 78.3 116.5)"/><ellipse cx="93.0" cy="112.5" rx="12.0" ry="23.0" fill="#f7bf24" transform="rotate(270 93.0 112.5)"/><ellipse cx="107.7" cy="116.5" rx="12.0" ry="23.0" fill="#f7bf24" transform="rotate(300 107.7 116.5)"/><ellipse cx="118.5" cy="127.3" rx="12.0" ry="23.0" fill="#f7bf24" transform="rotate(330 118.5 127.3)"/>
        <circle cx="93" cy="142" r="20.3" fill="#533218"/>
        <circle cx="93" cy="142" r="10.1" fill="#f9e59c" opacity="0.35"/>
      </g>
      
      <g>
        <rect x="204" y="174" width="6" height="105" rx="3" fill="#3f8d48"/>
        <ellipse cx="189" cy="221" rx="18" ry="8" fill="#4aa657" transform="rotate(-28 189 221)"/>
        <ellipse cx="225" cy="244" rx="18" ry="8" fill="#4aa657" transform="rotate(28 225 244)"/>
        <ellipse cx="237.8" cy="149.0" rx="12.5" ry="24.1" fill="#f7bf24" transform="rotate(0 237.8 149.0)"/><ellipse cx="233.7" cy="164.4" rx="12.5" ry="24.1" fill="#f7bf24" transform="rotate(30 233.7 164.4)"/><ellipse cx="222.4" cy="175.7" rx="12.5" ry="24.1" fill="#f7bf24" transform="rotate(60 222.4 175.7)"/><ellipse cx="207.0" cy="179.8" rx="12.5" ry="24.1" fill="#f7bf24" transform="rotate(90 207.0 179.8)"/><ellipse cx="191.6" cy="175.7" rx="12.5" ry="24.1" fill="#f7bf24" transform="rotate(120 191.6 175.7)"/><ellipse cx="180.3" cy="164.4" rx="12.5" ry="24.1" fill="#f7bf24" transform="rotate(150 180.3 164.4)"/><ellipse cx="176.2" cy="149.0" rx="12.5" ry="24.1" fill="#f7bf24" transform="rotate(180 176.2 149.0)"/><ellipse cx="180.3" cy="133.6" rx="12.5" ry="24.1" fill="#f7bf24" transform="rotate(210 180.3 133.6)"/><ellipse cx="191.6" cy="122.3" rx="12.5" ry="24.1" fill="#f7bf24" transform="rotate(240 191.6 122.3)"/><ellipse cx="207.0" cy="118.2" rx="12.5" ry="24.1" fill="#f7bf24" transform="rotate(270 207.0 118.2)"/><ellipse cx="222.4" cy="122.3" rx="12.5" ry="24.1" fill="#f7bf24" transform="rotate(300 222.4 122.3)"/><ellipse cx="233.7" cy="133.6" rx="12.5" ry="24.1" fill="#f7bf24" transform="rotate(330 233.7 133.6)"/>
        <circle cx="207" cy="149" r="21.2" fill="#533218"/>
        <circle cx="207" cy="149" r="10.6" fill="#f9e59c" opacity="0.35"/>
      </g>
      
      <g>
        <rect x="315" y="184" width="6" height="105" rx="3" fill="#3f8d48"/>
        <ellipse cx="300" cy="231" rx="18" ry="8" fill="#4aa657" transform="rotate(-28 300 231)"/>
        <ellipse cx="336" cy="254" rx="18" ry="8" fill="#4aa657" transform="rotate(28 336 254)"/>
        <ellipse cx="347.1" cy="159.0" rx="11.8" ry="22.7" fill="#f7bf24" transform="rotate(0 347.1 159.0)"/><ellipse cx="343.2" cy="173.5" rx="11.8" ry="22.7" fill="#f7bf24" transform="rotate(30 343.2 173.5)"/><ellipse cx="332.5" cy="184.2" rx="11.8" ry="22.7" fill="#f7bf24" transform="rotate(60 332.5 184.2)"/><ellipse cx="318.0" cy="188.1" rx="11.8" ry="22.7" fill="#f7bf24" transform="rotate(90 318.0 188.1)"/><ellipse cx="303.5" cy="184.2" rx="11.8" ry="22.7" fill="#f7bf24" transform="rotate(120 303.5 184.2)"/><ellipse cx="292.8" cy="173.5" rx="11.8" ry="22.7" fill="#f7bf24" transform="rotate(150 292.8 173.5)"/><ellipse cx="288.9" cy="159.0" rx="11.8" ry="22.7" fill="#f7bf24" transform="rotate(180 288.9 159.0)"/><ellipse cx="292.8" cy="144.5" rx="11.8" ry="22.7" fill="#f7bf24" transform="rotate(210 292.8 144.5)"/><ellipse cx="303.5" cy="133.8" rx="11.8" ry="22.7" fill="#f7bf24" transform="rotate(240 303.5 133.8)"/><ellipse cx="318.0" cy="129.9" rx="11.8" ry="22.7" fill="#f7bf24" transform="rotate(270 318.0 129.9)"/><ellipse cx="332.5" cy="133.8" rx="11.8" ry="22.7" fill="#f7bf24" transform="rotate(300 332.5 133.8)"/><ellipse cx="343.2" cy="144.5" rx="11.8" ry="22.7" fill="#f7bf24" transform="rotate(330 343.2 144.5)"/>
        <circle cx="318" cy="159" r="20.0" fill="#533218"/>
        <circle cx="318" cy="159" r="10.0" fill="#f9e59c" opacity="0.35"/>
      </g>
      
</svg>