<svg xmlns="http://www.w3.org/2000/svg" viewBox="0 0 420 260" role="img" aria-label="Flores de girasol">
  <defs>
    <linearGradient id="sky1" x1="0" y1="0" x2="0" y2="1">
      <stop offset="0%" stop-color="#d2f1ff"/>
      <stop offset="100%" stop-color="#ffffff"/>
    </linearGradient>
  </defs>
  <rect width="420" height="260" fill="url(#sky1)"/>
  <circle cx="345" cy="44" r="28" fill="#fff5b7" opacity="0.9"/>
  <rect x="0" y="180" width="420" height="80" fill="#8ccf7f"/>
  <path d="M0 193 C70 165, 140 205, 210 183 S350 196, 420 176 L420 260 L0 260 Z" fill="#6db457" opacity="0.7"/>
  
      <g>
        <rect x="93" y="183" width="6" height="105" rx="3" fill="#3f8d48"/>
        <ellipse cx="78" cy="230" rx="18" ry="8" fill="#4aa657" transform="rotate(-28 78 230)"/>
        <ellipse cx="114" cy="253" rx="18" ry="8" fill="#4aa657" transform="rotate(28 114 253)"/>
        <ellipse cx="131.6" cy="158.0" rx="14.5" ry="27.8" fill="#ffd447" transform="rotate(0 131.6 158.0)"/><ellipse cx="126.8" cy="175.8" rx="14.5" ry="27.8" fill="#ffd447" transform="rotate(30 126.8 175.8)"/><ellipse cx="113.8" cy="188.8" rx="14.5" ry="27.8" fill="#ffd447" transform="rotate(60 113.8 188.8)"/><ellipse cx="96.0" cy="193.6" rx="14.5" ry="27.8" fill="#ffd447" transform="rotate(90 96.0 193.6)"/><ellipse cx="78.2" cy="188.8" rx="14.5" ry="27.8" fill="#ffd447" transform="rotate(120 78.2 188.8)"/><ellipse cx="65.2" cy="175.8" rx="14.5" ry="27.8" fill="#ffd447" transform="rotate(150 65.2 175.8)"/><ellipse cx="60.4" cy="158.0" rx="14.5" ry="27.8" fill="#ffd447" transform="rotate(180 60.4 158.0)"/><ellipse cx="65.2" cy="140.2" rx="14.5" ry="27.8" fill="#ffd447" transform="rotate(210 65.2 140.2)"/><ellipse cx="78.2" cy="127.2" rx="14.5" ry="27.8" fill="#ffd447" transform="rotate(240 78.2 127.2)"/><ellipse cx="96.0" cy="122.4" rx="14.5" ry="27.8" fill="#ffd447" transform="rotate(270 96.0 122.4)"/><ellipse cx="113.8" cy="127.2" rx="14.5" ry="27.8" fill="#ffd447" transform="rotate(300 113.8 127.2)"/><ellipse cx="126.8" cy="140.2" rx="14.5" ry="27.8" fill="#ffd447" transform="rotate(330 126.8 140.2)"/>
        <circle cx="96" cy="158" r="24.5" fill="#68411b"/>
        <circle cx="96" cy="158" r="12.2" fill="#fff0bf" opacity="0.35"/>
      </g>
      
      <g>
        <rect x="201" y="173" width="6" height="105" rx="3" fill="#3f8d48"/>
        <ellipse cx="186" cy="220" rx="18" ry="8" fill="#4aa657" transform="rotate(-28 186 220)"/>
        <ellipse cx="222" cy="243" rx="18" ry="8" fill="#4aa657" transform="rotate(28 222 243)"/>
        <ellipse cx="233.7" cy="148.0" rx="12.1" ry="23.2" fill="#ffd447" transform="rotate(0 233.7 148.0)"/><ellipse cx="229.8" cy="162.9" rx="12.1" ry="23.2" fill="#ffd447" transform="rotate(30 229.8 162.9)"/><ellipse cx="218.9" cy="173.8" rx="12.1" ry="23.2" fill="#ffd447" transform="rotate(60 218.9 173.8)"/><ellipse cx="204.0" cy="177.7" rx="12.1" ry="23.2" fill="#ffd447" transform="rotate(90 204.0 177.7)"/><ellipse cx="189.1" cy="173.8" rx="12.1" ry="23.2" fill="#ffd447" transform="rotate(120 189.1 173.8)"/><ellipse cx="178.2" cy="162.9" rx="12.1" ry="23.2" fill="#ffd447" transform="rotate(150 178.2 162.9)"/><ellipse cx="174.3" cy="148.0" rx="12.1" ry="23.2" fill="#ffd447" transform="rotate(180 174.3 148.0)"/><ellipse cx="178.2" cy="133.1" rx="12.1" ry="23.2" fill="#ffd447" transform="rotate(210 178.2 133.1)"/><ellipse cx="189.1" cy="122.2" rx="12.1" ry="23.2" fill="#ffd447" transform="rotate(240 189.1 122.2)"/><ellipse cx="204.0" cy="118.3" rx="12.1" ry="23.2" fill="#ffd447" transform="rotate(270 204.0 118.3)"/><ellipse cx="218.9" cy="122.2" rx="12.1" ry="23.2" fill="#ffd447" transform="rotate(300 218.9 122.2)"/><ellipse cx="229.8" cy="133.1" rx="12.1" ry="23.2" fill="#ffd447" transform="rotate(330 229.8 133.1)"/>
        <circle cx="204" cy="148" r="20.4" fill="#68411b"/>
        <circle cx="204" cy="148" r="10.2" fill="#fff0bf" opacity="0.35"/>
      </g>
      
      <g>
        <rect x="323" y="180" width="6" height="105" rx="3" fill="#3f8d48"/>
        <ellipse cx="308" cy="227" rx="18" ry="8" fill="#4aa657" transform="rotate(-28 308 227)"/>
        <ellipse cx="344" cy="250" rx="18" ry="8" fill="#4aa657" transform="rotate(28 344 250)"/>
        <ellipse cx="360.0" cy="155.0" rx="13.8" ry="26.6" fill="#ffd447" transform="rotate(0 360.0 155.0)"/><ellipse cx="355.5" cy="172.0" rx="13.8" ry="26.6" fill="#ffd447" transform="rotate(30 355.5 172.0)"/><ellipse cx="343.0" cy="184.5" rx="13.8" ry="26.6" fill="#ffd447" transform="rotate(60 343.0 184.5)"/><ellipse cx="326.0" cy="189.0" rx="13.8" ry="26.6" fill="#ffd447" transform="rotate(90 326.0 189.0)"/><ellipse cx="309.0" cy="184.5" rx="13.8" ry="26.6" fill="#ffd447" transform="rotate(120 309.0 184.5)"/><ellipse cx="296.5" cy="172.0" rx="13.8" ry="26.6" fill="#ffd447" transform="rotate(150 296.5 172.0)"/><ellipse cx="292.0" cy="155.0" rx="13.8" ry="26.6" fill="#ffd447" transform="rotate(180 292.0 155.0)"/><ellipse cx="296.5" cy="138.0" rx="13.8" ry="26.6" fill="#ffd447" transform="rotate(210 296.5 138.0)"/><ellipse cx="309.0" cy="125.5" rx="13.8" ry="26.6" fill="#ffd447" transform="rotate(240 309.0 125.5)"/><ellipse cx="326.0" cy="121.0" rx="13.8" ry="26.6" fill="#ffd447" transform="rotate(270 326.0 121.0)"/><ellipse cx="343.0" cy="125.5" rx="13.8" ry="26.6" fill="#ffd447" transform="rotate(300 343.0 125.5)"/><ellipse cx="355.5" cy="138.0" rx="13.8" ry="26.6" fill="#ffd447" transform="rotate(330 355.5 138.0)"/>
        <circle cx="326" cy="155" r="23.4" fill="#68411b"/>
        <circle cx="326" cy="155" r="11.7" fill="#fff0bf" opacity="0.35"/>
      </g>
      
</svg>