<svg xmlns="http://www.w3.org/2000/svg" viewBox="0 0 420 260" role="img" aria-label="Flores de girasol">
  <defs>
    <linearGradient id="sky5" x1="0" y1="0" x2="0" y2="1">
      <stop offset="0%" stop-color="#c4ebff"/>
      <stop offset="100%" stop-color="#ffffff"/>
    </linearGradient>
  </defs>
  <rect width="420" height="260" fill="url(#sky5)"/>
  <circle cx="345" cy="44" r="28" fill="#fff5b7" opacity="0.9"/>
  <rect x="0" y="180" width="420" height="80" fill="#7dc66a"/>
  <path d="M0 193 C70 165, 140 205, 210 183 S350 196, 420 176 L420 260 L0 260 Z" fill="#6db457" opacity="0.7"/>
  
      <g>
        <rect x="97" y="176" width="6" height="105" rx="3" fill="#3f8d48"/>
        <ellipse cx="82" cy="223" rx="18" ry="8" fill="#4aa657" transform="rotate(-28 82 223)"/>
        <ellipse cx="118" cy="246" rx="18" ry="8" fill="#4aa657" transform="rotate(28 118 246)"/>
        <ellipse cx="135.2" cy="151.0" rx="14.3" ry="27.5" fill="#f7bf24" transform="rotate(0 135.2 151.0)"/><ellipse cx="130.5" cy="168.6" rx="14.3" ry="27.5" fill="#f7bf24" transform="rotate(30 130.5 168.6)"/><ellipse cx="117.6" cy="181.5" rx="14.3" ry="27.5" fill="#f7bf24" transform="rotate(60 117.6 181.5)"/><ellipse cx="100.0" cy="186.2" rx="14.3" ry="27.5" fill="#f7bf24" transform="rotate(90 100.0 186.2)"/><ellipse cx="82.4" cy="181.5" rx="14.3" ry="27.5" fill="#f7bf24" transform="rotate(120 82.4 181.5)"/><ellipse cx="69.5" cy="168.6" rx="14.3" ry="27.5" fill="#f7bf24" transform="rotate(150 69.5 168.6)"/><ellipse cx="64.8" cy="151.0" rx="14.3" ry="27.5" fill="#f7bf24" transform="rotate(180 64.8 151.0)"/><ellipse cx="69.5" cy="133.4" rx="14.3" ry="27.5" fill="#f7bf24" transform="rotate(210 69.5 133.4)"/><ellipse cx="82.4" cy="120.5" rx="14.3" ry="27.5" fill="#f7bf24" transform="rotate(240 82.4 120.5)"/><ellipse cx="100.0" cy="115.8" rx="14.3" ry="27.5" fill="#f7bf24" transform="rotate(270 100.0 115.8)"/><ellipse cx="117.6" cy="120.5" rx="14.3" ry="27.5" fill="#f7bf24" transform="rotate(300 117.6 120.5)"/><ellipse cx="130.5" cy="133.4" rx="14.3" ry="27.5" fill="#f7bf24" transform="rotate(330 130.5 133.4)"/>
        <circle cx="100" cy="151" r="24.2" fill="#533218"/>
        <circle cx="100" cy="151" r="12.1" fill="#f9e59c" opacity="0.35"/>
      </g>
      
      <g>
        <rect x="215" y="165" width="6" height="105" rx="3" fill="#3f8d48"/>
        <ellipse cx="200" cy="212" rx="18" ry="8" fill="#4aa657" transform="rotate(-28 200 212)"/>
        <ellipse cx="236" cy="235" rx="18" ry="8" fill="#4aa657" transform="rotate(28 236 235)"/>
        <ellipse cx="253.5" cy="140.0" rx="14.4" ry="27.8" fill="#f7bf24" transform="rotate(0 253.5 140.0)"/><ellipse cx="248.8" cy="157.8" rx="14.4" ry="27.8" fill="#f7bf24" transform="rotate(30 248.8 157.8)"/><ellipse cx="235.8" cy="170.8" rx="14.4" ry="27.8" fill="#f7bf24" transform="rotate(60 235.8 170.8)"/><ellipse cx="218.0" cy="175.5" rx="14.4" ry="27.8" fill="#f7bf24" transform="rotate(90 218.0 175.5)"/><ellipse cx="200.2" cy="170.8" rx="14.4" ry="27.8" fill="#f7bf24" transform="rotate(120 200.2 170.8)"/><ellipse cx="187.2" cy="157.8" rx="14.4" ry="27.8" fill="#f7bf24" transform="rotate(150 187.2 157.8)"/><ellipse cx="182.5" cy="140.0" rx="14.4" ry="27.8" fill="#f7bf24" transform="rotate(180 182.5 140.0)"/><ellipse cx="187.2" cy="122.2" rx="14.4" ry="27.8" fill="#f7bf24" transform="rotate(210 187.2 122.2)"/><ellipse cx="200.2" cy="109.2" rx="14.4" ry="27.8" fill="#f7bf24" transform="rotate(240 200.2 109.2)"/><ellipse cx="218.0" cy="104.5" rx="14.4" ry="27.8" fill="#f7bf24" transform="rotate(270 218.0 104.5)"/><ellipse cx="235.8" cy="109.2" rx="14.4" ry="27.8" fill="#f7bf24" transform="rotate(300 235.8 109.2)"/><ellipse cx="248.8" cy="122.2" rx="14.4" ry="27.8" fill="#f7bf24" transform="rotate(330 248.8 122.2)"/>
        <circle cx="218" cy="140" r="24.4" fill="#533218"/>
        <circle cx="218" cy="140" r="12.2" fill="#f9e59c" opacity="0.35"/>
      </g>
      
      <g>
        <rect x="316" y="185" width="6" height="105" rx="3" fill="#3f8d48"/>
        <ellipse cx="301" cy="232" rx="18" ry="8" fill="#4aa657" transform="rotate(-28 301 232)"/>
        <ellipse cx="337" cy="255" rx="18" ry="8" fill="#4aa657" transform="rotate(28 337 255)"/>
        <ellipse cx="348.2" cy="160.0" rx="11.9" ry="22.8" fill="#f7bf24" transform="rotate(0 348.2 160.0)"/><ellipse cx="344.3" cy="174.6" rx="11.9" ry="22.8" fill="#f7bf24" transform="rotate(30 344.3 174.6)"/><ellipse cx="333.6" cy="185.3" rx="11.9" ry="22.8" fill="#f7bf24" transform="rotate(60 333.6 185.3)"/><ellipse cx="319.0" cy="189.2" rx="11.9" ry="22.8" fill="#f7bf24" transform="rotate(90 319.0 189.2)"/><ellipse cx="304.4" cy="185.3" rx="11.9" ry="22.8" fill="#f7bf24" transform="rotate(120 304.4 185.3)"/><ellipse cx="293.7" cy="174.6" rx="11.9" ry="22.8" fill="#f7bf24" transform="rotate(150 293.7 174.6)"/><ellipse cx="289.8" cy="160.0" rx="11.9" ry="22.8" fill="#f7bf24" transform="rotate(180 289.8 160.0)"/><ellipse cx="293.7" cy="145.4" rx="11.9" ry="22.8" fill="#f7bf24" transform="rotate(210 293.7 145.4)"/><ellipse cx="304.4" cy="134.7" rx="11.9" ry="22.8" fill="#f7bf24" transform="rotate(240 304.4 134.7)"/><ellipse cx="319.0" cy="130.8" rx="11.9" ry="22.8" fill="#f7bf24" transform="rotate(270 319.0 130.8)"/><ellipse cx="333.6" cy="134.7" rx="11.9" ry="22.8" fill="#f7bf24" transform="rotate(300 333.6 134.7)"/><ellipse cx="344.3" cy="145.4" rx="11.9" ry="22.8" fill="#f7bf24" transform="rotate(330 344.3 145.4)"/>
        <circle cx="319" cy="160" r="20.1" fill="#533218"/>
        <circle cx="319" cy="160" r="10.0" fill="#f9e59c" opacity="0.35"/>
      </g>
      
</svg>