<svg xmlns="http://www.w3.org/2000/svg" viewBox="0 0 420 260" role="img" aria-label="Flores de girasol">
  <defs>
    <linearGradient id="sky3" x1="0" y1="0" x2="0" y2="1">
      <stop offset="0%" stop-color="#dff6ff"/>
      <stop offset="100%" stop-color="#ffffff"/>
    </linearGradient>
  </defs>
  <rect width="420" height="260" fill="url(#sky3)"/>
  <circle cx="345" cy="44" r="28" fill="#fff5b7" opacity="0.9"/>
  <rect x="0" y="180" width="420" height="80" fill="#89c96f"/>
  <path d="M0 193 C70 165, 140 205, 210 183 S350 196, 420 176 L420 260 L0 260 Z" fill="#6db457" opacity="0.7"/>
  
      <g>
        <rect x="96" y="183" width="6" height="105" rx="3" fill="#3f8d48"/>
        <ellipse cx="81" cy="230" rx="18" ry="8" fill="#4aa657" transform="rotate(-28 81 230)"/>
        <ellipse cx="117" cy="253" rx="18" ry="8" fill="#4aa657" transform="rotate(28 117 253)"/>
        <ellipse cx="132.2" cy="158.0" rx="13.5" ry="25.9" fill="#f6c338" transform="rotate(0 132.2 158.0)"/><ellipse cx="127.7" cy="174.6" rx="13.5" ry="25.9" fill="#f6c338" transform="rotate(30 127.7 174.6)"/><ellipse cx="115.6" cy="186.7" rx="13.5" ry="25.9" fill="#f6c338" transform="rotate(60 115.6 186.7)"/><ellipse cx="99.0" cy="191.2" rx="13.5" ry="25.9" fill="#f6c338" transform="rotate(90 99.0 191.2)"/><ellipse cx="82.4" cy="186.7" rx="13.5" ry="25.9" fill="#f6c338" transform="rotate(120 82.4 186.7)"/><ellipse cx="70.3" cy="174.6" rx="13.5" ry="25.9" fill="#f6c338" transform="rotate(150 70.3 174.6)"/><ellipse cx="65.8" cy="158.0" rx="13.5" ry="25.9" fill="#f6c338" transform="rotate(180 65.8 158.0)"/><ellipse cx="70.3" cy="141.4" rx="13.5" ry="25.9" fill="#f6c338" transform="rotate(210 70.3 141.4)"/><ellipse cx="82.4" cy="129.3" rx="13.5" ry="25.9" fill="#f6c338" transform="rotate(240 82.4 129.3)"/><ellipse cx="99.0" cy="124.8" rx="13.5" ry="25.9" fill="#f6c338" transform="rotate(270 99.0 124.8)"/><ellipse cx="115.6" cy="129.3" rx="13.5" ry="25.9" fill="#f6c338" transform="rotate(300 115.6 129.3)"/><ellipse cx="127.7" cy="141.4" rx="13.5" ry="25.9" fill="#f6c338" transform="rotate(330 127.7 141.4)"/>
        <circle cx="99" cy="158" r="22.8" fill="#5e3d20"/>
        <circle cx="99" cy="158" r="11.4" fill="#f8e8a0" opacity="0.35"/>
      </g>
      
      <g>
        <rect x="210" y="184" width="6" height="105" rx="3" fill="#3f8d48"/>
        <ellipse cx="195" cy="231" rx="18" ry="8" fill="#4aa657" transform="rotate(-28 195 231)"/>
        <ellipse cx="231" cy="254" rx="18" ry="8" fill="#4aa657" transform="rotate(28 231 254)"/>
        <ellipse cx="245.6" cy="159.0" rx="13.2" ry="25.5" fill="#f6c338" transform="rotate(0 245.6 159.0)"/><ellipse cx="241.2" cy="175.3" rx="13.2" ry="25.5" fill="#f6c338" transform="rotate(30 241.2 175.3)"/><ellipse cx="229.3" cy="187.2" rx="13.2" ry="25.5" fill="#f6c338" transform="rotate(60 229.3 187.2)"/><ellipse cx="213.0" cy="191.6" rx="13.2" ry="25.5" fill="#f6c338" transform="rotate(90 213.0 191.6)"/><ellipse cx="196.7" cy="187.2" rx="13.2" ry="25.5" fill="#f6c338" transform="rotate(120 196.7 187.2)"/><ellipse cx="184.8" cy="175.3" rx="13.2" ry="25.5" fill="#f6c338" transform="rotate(150 184.8 175.3)"/><ellipse cx="180.4" cy="159.0" rx="13.2" ry="25.5" fill="#f6c338" transform="rotate(180 180.4 159.0)"/><ellipse cx="184.8" cy="142.7" rx="13.2" ry="25.5" fill="#f6c338" transform="rotate(210 184.8 142.7)"/><ellipse cx="196.7" cy="130.8" rx="13.2" ry="25.5" fill="#f6c338" transform="rotate(240 196.7 130.8)"/><ellipse cx="213.0" cy="126.4" rx="13.2" ry="25.5" fill="#f6c338" transform="rotate(270 213.0 126.4)"/><ellipse cx="229.3" cy="130.8" rx="13.2" ry="25.5" fill="#f6c338" transform="rotate(300 229.3 130.8)"/><ellipse cx="241.2" cy="142.7" rx="13.2" ry="25.5" fill="#f6c338" transform="rotate(330 241.2 142.7)"/>
        <circle cx="213" cy="159" r="22.4" fill="#5e3d20"/>
        <circle cx="213" cy="159" r="11.2" fill="#f8e8a0" opacity="0.35"/>
      </g>
      
      <g>
        <rect x="311" y="184" width="6" height="105" rx="3" fill="#3f8d48"/>
        <ellipse cx="296" cy="231" rx="18" ry="8" fill="#4aa657" transform="rotate(-28 296 231)"/>
        <ellipse cx="332" cy="254" rx="18" ry="8" fill="#4aa657" transform="rotate(28 332 254)"/>
        <ellipse cx="342.9" cy="159.0" rx="11.7" ry="22.6" fill="#f6c338" transform="rotate(0 342.9 159.0)"/><ellipse cx="339.0" cy="173.5" rx="11.7" ry="22.6" fill="#f6c338" transform="rotate(30 339.0 173.5)"/><ellipse cx="328.5" cy="184.0" rx="11.7" ry="22.6" fill="#f6c338" transform="rotate(60 328.5 184.0)"/><ellipse cx="314.0" cy="187.9" rx="11.7" ry="22.6" fill="#f6c338" transform="rotate(90 314.0 187.9)"/><ellipse cx="299.5" cy="184.0" rx="11.7" ry="22.6" fill="#f6c338" transform="rotate(120 299.5 184.0)"/><ellipse cx="289.0" cy="173.5" rx="11.7" ry="22.6" fill="#f6c338" transform="rotate(150 289.0 173.5)"/><ellipse cx="285.1" cy="159.0" rx="11.7" ry="22.6" fill="#f6c338" transform="rotate(180 285.1 159.0)"/><ellipse cx="289.0" cy="144.5" rx="11.7" ry="22.6" fill="#f6c338" transform="rotate(210 289.0 144.5)"/><ellipse cx="299.5" cy="134.0" rx="11.7" ry="22.6" fill="#f6c338" transform="rotate(240 299.5 134.0)"/><ellipse cx="314.0" cy="130.1" rx="11.7" ry="22.6" fill="#f6c338" transform="rotate(270 314.0 130.1)"/><ellipse cx="328.5" cy="134.0" rx="11.7" ry="22.6" fill="#f6c338" transform="rotate(300 328.5 134.0)"/><ellipse cx="339.0" cy="144.5" rx="11.7" ry="22.6" fill="#f6c338" transform="rotate(330 339.0 144.5)"/>
        <circle cx="314" cy="159" r="19.9" fill="#5e3d20"/>
        <circle cx="314" cy="159" r="9.9" fill="#f8e8a0" opacity="0.35"/>
      </g>
      
</svg>