<svg xmlns="http://www.w3.org/2000/svg" viewBox="0 0 420 260" role="img" aria-label="Flores de girasol">
  <defs>
    <linearGradient id="sky6" x1="0" y1="0" x2="0" y2="1">
      <stop offset="0%" stop-color="#dff6ff"/>
      <stop offset="100%" stop-color="#ffffff"/>
    </linearGradient>
  </defs>
  <rect width="420" height="260" fill="url(#sky6)"/>
  <circle cx="345" cy="44" r="28" fill="#fff5b7" opacity="0.9"/>
  <rect x="0" y="180" width="420" height="80" fill="#89c96f"/>
  <path d="M0 193 C70 165, 140 205, 210 183 S350 196, 420 176 L420 260 L0 260 Z" fill="#6db457" opacity="0.7"/>
  
      <g>
        <rect x="91" y="180" width="6" height="105" rx="3" fill="#3f8d48"/>
        <ellipse cx="76" cy="227" rx="18" ry="8" fill="#4aa657" transform="rotate(-28 76 227)"/>
        <ellipse cx="112" cy="250" rx="18" ry="8" fill="#4aa657" transform="rotate(28 112 250)"/>
        <ellipse cx="128.9" cy="155.0" rx="14.2" ry="27.3" fill="#f6c338" transform="rotate(0 128.9 155.0)"/><ellipse cx="124.2" cy="172.4" rx="14.2" ry="27.3" fill="#f6c338" transform="rotate(30 124.2 172.4)"/><ellipse cx="111.4" cy="185.2" rx="14.2" ry="27.3" fill="#f6c338" transform="rotate(60 111.4 185.2)"/><ellipse cx="94.0" cy="189.9" rx="14.2" ry="27.3" fill="#f6c338" transform="rotate(90 94.0 189.9)"/><ellipse cx="76.6" cy="185.2" rx="14.2" ry="27.3" fill="#f6c338" transform="rotate(120 76.6 185.2)"/><ellipse cx="63.8" cy="172.4" rx="14.2" ry="27.3" fill="#f6c338" transform="rotate(150 63.8 172.4)"/><ellipse cx="59.1" cy="155.0" rx="14.2" ry="27.3" fill="#f6c338" transform="rotate(180 59.1 155.0)"/><ellipse cx="63.8" cy="137.6" rx="14.2" ry="27.3" fill="#f6c338" transform="rotate(210 63.8 137.6)"/><ellipse cx="76.6" cy="124.8" rx="14.2" ry="27.3" fill="#f6c338" transform="rotate(240 76.6 124.8)"/><ellipse cx="94.0" cy="120.1" rx="14.2" ry="27.3" fill="#f6c338" transform="rotate(270 94.0 120.1)"/><ellipse cx="111.4" cy="124.8" rx="14.2" ry="27.3" fill="#f6c338" transform="rotate(300 111.4 124.8)"/><ellipse cx="124.2" cy="137.6" rx="14.2" ry="27.3" fill="#f6c338" transform="rotate(330 124.2 137.6)"/>
        <circle cx="94" cy="155" r="24.0" fill="#5e3d20"/>
        <circle cx="94" cy="155" r="12.0" fill="#f8e8a0" opacity="0.35"/>
      </g>
      
      <g>
        <rect x="200" y="165" width="6" height="105" rx="3" fill="#3f8d48"/>
        <ellipse cx="185" cy="212" rx="18" ry="8" fill="#4aa657" transform="rotate(-28 185 212)"/>
        <ellipse cx="221" cy="235" rx="18" ry="8" fill="#4aa657" transform="rotate(28 221 235)"/>
        <ellipse cx="233.0" cy="140.0" rx="12.2" ry="23.4" fill="#f6c338" transform="rotate(0 233.0 140.0)"/><ellipse cx="229.0" cy="155.0" rx="12.2" ry="23.4" fill="#f6c338" transform="rotate(30 229.0 155.0)"/><ellipse cx="218.0" cy="166.0" rx="12.2" ry="23.4" fill="#f6c338" transform="rotate(60 218.0 166.0)"/><ellipse cx="203.0" cy="170.0" rx="12.2" ry="23.4" fill="#f6c338" transform="rotate(90 203.0 170.0)"/><ellipse cx="188.0" cy="166.0" rx="12.2" ry="23.4" fill="#f6c338" transform="rotate(120 188.0 166.0)"/><ellipse cx="177.0" cy="155.0" rx="12.2" ry="23.4" fill="#f6c338" transform="rotate(150 177.0 155.0)"/><ellipse cx="173.0" cy="140.0" rx="12.2" ry="23.4" fill="#f6c338" transform="rotate(180 173.0 140.0)"/><ellipse cx="177.0" cy="125.0" rx="12.2" ry="23.4" fill="#f6c338" transform="rotate(210 177.0 125.0)"/><ellipse cx="188.0" cy="114.0" rx="12.2" ry="23.4" fill="#f6c338" transform="rotate(240 188.0 114.0)"/><ellipse cx="203.0" cy="110.0" rx="12.2" ry="23.4" fill="#f6c338" transform="rotate(270 203.0 110.0)"/><ellipse cx="218.0" cy="114.0" rx="12.2" ry="23.4" fill="#f6c338" transform="rotate(300 218.0 114.0)"/><ellipse cx="229.0" cy="125.0" rx="12.2" ry="23.4" fill="#f6c338" transform="rotate(330 229.0 125.0)"/>
        <circle cx="203" cy="140" r="20.6" fill="#5e3d20"/>
        <circle cx="203" cy="140" r="10.3" fill="#f8e8a0" opacity="0.35"/>
      </g>
      
      <g>
        <rect x="324" y="176" width="6" height="105" rx="3" fill="#3f8d48"/>
        <ellipse cx="309" cy="223" rx="18" ry="8" fill="#4aa657" transform="rotate(-28 309 223)"/>
        <ellipse cx="345" cy="246" rx="18" ry="8" fill="#4aa657" transform="rotate(28 345 246)"/>
        <ellipse cx="358.4" cy="151.0" rx="12.7" ry="24.5" fill="#f6c338" transform="rotate(0 358.4 151.0)"/><ellipse cx="354.2" cy="166.7" rx="12.7" ry="24.5" fill="#f6c338" transform="rotate(30 354.2 166.7)"/><ellipse cx="342.7" cy="178.2" rx="12.7" ry="24.5" fill="#f6c338" transform="rotate(60 342.7 178.2)"/><ellipse cx="327.0" cy="182.4" rx="12.7" ry="24.5" fill="#f6c338" transform="rotate(90 327.0 182.4)"/><ellipse cx="311.3" cy="178.2" rx="12.7" ry="24.5" fill="#f6c338" transform="rotate(120 311.3 178.2)"/><ellipse cx="299.8" cy="166.7" rx="12.7" ry="24.5" fill="#f6c338" transform="rotate(150 299.8 166.7)"/><ellipse cx="295.6" cy="151.0" rx="12.7" ry="24.5" fill="#f6c338" transform="rotate(180 295.6 151.0)"/><ellipse cx="299.8" cy="135.3" rx="12.7" ry="24.5" fill="#f6c338" transform="rotate(210 299.8 135.3)"/><ellipse cx="311.3" cy="123.8" rx="12.7" ry="24.5" fill="#f6c338" transform="rotate(240 311.3 123.8)"/><ellipse cx="327.0" cy="119.6" rx="12.7" ry="24.5" fill="#f6c338" transform="rotate(270 327.0 119.6)"/><ellipse cx="342.7" cy="123.8" rx="12.7" ry="24.5" fill="#f6c338" transform="rotate(300 342.7 123.8)"/><ellipse cx="354.2" cy="135.3" rx="12.7" ry="24.5" fill="#f6c338" transform="rotate(330 354.2 135.3)"/>
        <circle cx="327" cy="151" r="21.6" fill="#5e3d20"/>
        <circle cx="327" cy="151" r="10.8" fill="#f8e8a0" opacity="0.35"/>
      </g>
      
</svg>