<svg xmlns="http://www.w3.org/2000/svg" viewBox="0 0 420 260" role="img" aria-label="Flores de girasol">
  <defs>
    <linearGradient id="sky9" x1="0" y1="0" x2="0" y2="1">
      <stop offset="0%" stop-color="#dff6ff"/>
      <stop offset="100%" stop-color="#ffffff"/>
    </linearGradient>
  </defs>
  <rect width="420" height="260" fill="url(#sky9)"/>
  <circle cx="345" cy="44" r="28" fill="#fff5b7" opacity="0.9"/>
  <rect x="0" y="180" width="420" height="80" fill="#89c96f"/>
  <path d="M0 193 C70 165, 140 205, 210 183 S350 196, 420 176 L420 260 L0 260 Z" fill="#6db457" opacity="0.7"/>
  
      <g>
        <rect x="103" y="184" width="6" height="105" rx="3" fill="#3f8d48"/>
        <ellipse cx="88" cy="231" rx="18" ry="8" fill="#4aa657" transform="rotate(-28 88 231)"/>
        <ellipse cx="124" cy="254" rx="18" ry="8" fill="#4aa657" transform="rotate(28 124 254)"/>
        <ellipse cx="137.8" cy="159.0" rx="12.9" ry="24.8" fill="#f6c338" transform="rotate(0 137.8 159.0)"/><ellipse cx="133.5" cy="174.9" rx="12.9" ry="24.8" fill="#f6c338" transform="rotate(30 133.5 174.9)"/><ellipse cx="121.9" cy="186.5" rx="12.9" ry="24.8" fill="#f6c338" transform="rotate(60 121.9 186.5)"/><ellipse cx="106.0" cy="190.8" rx="12.9" ry="24.8" fill="#f6c338" transform="rotate(90 106.0 190.8)"/><ellipse cx="90.1" cy="186.5" rx="12.9" ry="24.8" fill="#f6c338" transform="rotate(120 90.1 186.5)"/><ellipse cx="78.5" cy="174.9" rx="12.9" ry="24.8" fill="#f6c338" transform="rotate(150 78.5 174.9)"/><ellipse cx="74.2" cy="159.0" rx="12.9" ry="24.8" fill="#f6c338" transform="rotate(180 74.2 159.0)"/><ellipse cx="78.5" cy="143.1" rx="12.9" ry="24.8" fill="#f6c338" transform="rotate(210 78.5 143.1)"/><ellipse cx="90.1" cy="131.5" rx="12.9" ry="24.8" fill="#f6c338" transform="rotate(240 90.1 131.5)"/><ellipse cx="106.0" cy="127.2" rx="12.9" ry="24.8" fill="#f6c338" transform="rotate(270 106.0 127.2)"/><ellipse cx="121.9" cy="131.5" rx="12.9" ry="24.8" fill="#f6c338" transform="rotate(300 121.9 131.5)"/><ellipse cx="133.5" cy="143.1" rx="12.9" ry="24.8" fill="#f6c338" transform="rotate(330 133.5 143.1)"/>
        <circle cx="106" cy="159" r="21.9" fill="#5e3d20"/>
        <circle cx="106" cy="159" r="10.9" fill="#f8e8a0" opacity="0.35"/>
      </g>
      
      <g>
        <rect x="203" y="170" width="6" height="105" rx="3" fill="#3f8d48"/>
        <ellipse cx="188" cy="217" rx="18" ry="8" fill="#4aa657" transform="rotate(-28 188 217)"/>
        <ellipse cx="224" cy="240" rx="18" ry="8" fill="#4aa657" transform="rotate(28 224 240)"/>
        <ellipse cx="241.7" cy="145.0" rx="14.5" ry="27.9" fill="#f6c338" transform="rotate(0 241.7 145.0)"/><ellipse cx="236.9" cy="162.9" rx="14.5" ry="27.9" fill="#f6c338" transform="rotate(30 236.9 162.9)"/><ellipse cx="223.9" cy="175.9" rx="14.5" ry="27.9" fill="#f6c338" transform="rotate(60 223.9 175.9)"/><ellipse cx="206.0" cy="180.7" rx="14.5" ry="27.9" fill="#f6c338" transform="rotate(90 206.0 180.7)"/><ellipse cx="188.1" cy="175.9" rx="14.5" ry="27.9" fill="#f6c338" transform="rotate(120 188.1 175.9)"/><ellipse cx="175.1" cy="162.9" rx="14.5" ry="27.9" fill="#f6c338" transform="rotate(150 175.1 162.9)"/><ellipse cx="170.3" cy="145.0" rx="14.5" ry="27.9" fill="#f6c338" transform="rotate(180 170.3 145.0)"/><ellipse cx="175.1" cy="127.1" rx="14.5" ry="27.9" fill="#f6c338" transform="rotate(210 175.1 127.1)"/><ellipse cx="188.1" cy="114.1" rx="14.5" ry="27.9" fill="#f6c338" transform="rotate(240 188.1 114.1)"/><ellipse cx="206.0" cy="109.3" rx="14.5" ry="27.9" fill="#f6c338" transform="rotate(270 206.0 109.3)"/><ellipse cx="223.9" cy="114.1" rx="14.5" ry="27.9" fill="#f6c338" transform="rotate(300 223.9 114.1)"/><ellipse cx="236.9" cy="127.1" rx="14.5" ry="27.9" fill="#f6c338" transform="rotate(330 236.9 127.1)"/>
        <circle cx="206" cy="145" r="24.6" fill="#5e3d20"/>
        <circle cx="206" cy="145" r="12.3" fill="#f8e8a0" opacity="0.35"/>
      </g>
      
      <g>
        <rect x="309" y="175" width="6" height="105" rx="3" fill="#3f8d48"/>
        <ellipse cx="294" cy="222" rx="18" ry="8" fill="#4aa657" transform="rotate(-28 294 222)"/>
        <ellipse cx="330" cy="245" rx="18" ry="8" fill="#4aa657" transform="rotate(28 330 245)"/>
        <ellipse cx="344.8" cy="150.0" rx="13.3" ry="25.6" fill="#f6c338" transform="rotate(0 344.8 150.0)"/><ellipse cx="340.4" cy="166.4" rx="13.3" ry="25.6" fill="#f6c338" transform="rotate(30 340.4 166.4)"/><ellipse cx="328.4" cy="178.4" rx="13.3" ry="25.6" fill="#f6c338" transform="rotate(60 328.4 178.4)"/><ellipse cx="312.0" cy="182.8" rx="13.3" ry="25.6" fill="#f6c338" transform="rotate(90 312.0 182.8)"/><ellipse cx="295.6" cy="178.4" rx="13.3" ry="25.6" fill="#f6c338" transform="rotate(120 295.6 178.4)"/><ellipse cx="283.6" cy="166.4" rx="13.3" ry="25.6" fill="#f6c338" transform="rotate(150 283.6 166.4)"/><ellipse cx="279.2" cy="150.0" rx="13.3" ry="25.6" fill="#f6c338" transform="rotate(180 279.2 150.0)"/><ellipse cx="283.6" cy="133.6" rx="13.3" ry="25.6" fill="#f6c338" transform="rotate(210 283.6 133.6)"/><ellipse cx="295.6" cy="121.6" rx="13.3" ry="25.6" fill="#f6c338" transform="rotate(240 295.6 121.6)"/><ellipse cx="312.0" cy="117.2" rx="13.3" ry="25.6" fill="#f6c338" transform="rotate(270 312.0 117.2)"/><ellipse cx="328.4" cy="121.6" rx="13.3" ry="25.6" fill="#f6c338" transform="rotate(300 328.4 121.6)"/><ellipse cx="340.4" cy="133.6" rx="13.3" ry="25.6" fill="#f6c338" transform="rotate(330 340.4 133.6)"/>
        <circle cx="312" cy="150" r="22.6" fill="#5e3d20"/>
        <circle cx="312" cy="150" r="11.3" fill="#f8e8a0" opacity="0.35"/>
      </g>
      
</svg>