<svg xmlns="http://www.w3.org/2000/svg" viewBox="0 0 420 260" role="img" aria-label="Flores de girasol">
  <defs>
    <linearGradient id="sky4" x1="0" y1="0" x2="0" y2="1">
      <stop offset="0%" stop-color="#d2f1ff"/>
      <stop offset="100%" stop-color="#ffffff"/>
    </linearGradient>
  </defs>
  <rect width="420" height="260" fill="url(#sky4)"/>
  <circle cx="345" cy="44" r="28" fill="#fff5b7" opacity="0.9"/>
  <rect x="0" y="180" width="420" height="80" fill="#8ccf7f"/>
  <path d="M0 193 C70 165, 140 205, 210 183 S350 196, 420 176 L420 260 L0 260 Z" fill="#6db457" opacity="0.7"/>
  
      <g>
        <rect x="96" y="174" width="6" height="105" rx="3" fill="#3f8d48"/>
        <ellipse cx="81" cy="221" rx="18" ry="8" fill="#4aa657" transform="rotate(-28 81 221)"/>
        <ellipse cx="117" cy="244" rx="18" ry="8" fill="#4aa657" transform="rotate(28 117 244)"/>
        <ellipse cx="128.6" cy="149.0" rx="12.0" ry="23.1" fill="#ffd447" transform="rotate(0 128.6 149.0)"/><ellipse cx="124.7" cy="163.8" rx="12.0" ry="23.1" fill="#ffd447" transform="rotate(30 124.7 163.8)"/><ellipse cx="113.8" cy="174.7" rx="12.0" ry="23.1" fill="#ffd447" transform="rotate(60 113.8 174.7)"/><ellipse cx="99.0" cy="178.6" rx="12.0" ry="23.1" fill="#ffd447" transform="rotate(90 99.0 178.6)"/><ellipse cx="84.2" cy="174.7" rx="12.0" ry="23.1" fill="#ffd447" transform="rotate(120 84.2 174.7)"/><ellipse cx="73.3" cy="163.8" rx="12.0" ry="23.1" fill="#ffd447" transform="rotate(150 73.3 163.8)"/><ellipse cx="69.4" cy="149.0" rx="12.0" ry="23.1" fill="#ffd447" transform="rotate(180 69.4 149.0)"/><ellipse cx="73.3" cy="134.2" rx="12.0" ry="23.1" fill="#ffd447" transform="rotate(210 73.3 134.2)"/><ellipse cx="84.2" cy="123.3" rx="12.0" ry="23.1" fill="#ffd447" transform="rotate(240 84.2 123.3)"/><ellipse cx="99.0" cy="119.4" rx="12.0" ry="23.1" fill="#ffd447" transform="rotate(270 99.0 119.4)"/><ellipse cx="113.8" cy="123.3" rx="12.0" ry="23.1" fill="#ffd447" transform="rotate(300 113.8 123.3)"/><ellipse cx="124.7" cy="134.2" rx="12.0" ry="23.1" fill="#ffd447" transform="rotate(330 124.7 134.2)"/>
        <circle cx="99" cy="149" r="20.4" fill="#68411b"/>
        <circle cx="99" cy="149" r="10.2" fill="#fff0bf" opacity="0.35"/>
      </g>
      
      <g>
        <rect x="211" y="180" width="6" height="105" rx="3" fill="#3f8d48"/>
        <ellipse cx="196" cy="227" rx="18" ry="8" fill="#4aa657" transform="rotate(-28 196 227)"/>
        <ellipse cx="232" cy="250" rx="18" ry="8" fill="#4aa657" transform="rotate(28 232 250)"/>
        <ellipse cx="244.0" cy="155.0" rx="12.2" ry="23.5" fill="#ffd447" transform="rotate(0 244.0 155.0)"/><ellipse cx="240.0" cy="170.0" rx="12.2" ry="23.5" fill="#ffd447" transform="rotate(30 240.0 170.0)"/><ellipse cx="229.0" cy="181.0" rx="12.2" ry="23.5" fill="#ffd447" transform="rotate(60 229.0 181.0)"/><ellipse cx="214.0" cy="185.0" rx="12.2" ry="23.5" fill="#ffd447" transform="rotate(90 214.0 185.0)"/><ellipse cx="199.0" cy="181.0" rx="12.2" ry="23.5" fill="#ffd447" transform="rotate(120 199.0 181.0)"/><ellipse cx="188.0" cy="170.0" rx="12.2" ry="23.5" fill="#ffd447" transform="rotate(150 188.0 170.0)"/><ellipse cx="184.0" cy="155.0" rx="12.2" ry="23.5" fill="#ffd447" transform="rotate(180 184.0 155.0)"/><ellipse cx="188.0" cy="140.0" rx="12.2" ry="23.5" fill="#ffd447" transform="rotate(210 188.0 140.0)"/><ellipse cx="199.0" cy="129.0" rx="12.2" ry="23.5" fill="#ffd447" transform="rotate(240 199.0 129.0)"/><ellipse cx="214.0" cy="125.0" rx="12.2" ry="23.5" fill="#ffd447" transform="rotate(270 214.0 125.0)"/><ellipse cx="229.0" cy="129.0" rx="12.2" ry="23.5" fill="#ffd447" transform="rotate(300 229.0 129.0)"/><ellipse cx="240.0" cy="140.0" rx="12.2" ry="23.5" fill="#ffd447" transform="rotate(330 240.0 140.0)"/>
        <circle cx="214" cy="155" r="20.7" fill="#68411b"/>
        <circle cx="214" cy="155" r="10.3" fill="#fff0bf" opacity="0.35"/>
      </g>
      
      <g>
        <rect x="311" y="165" width="6" height="105" rx="3" fill="#3f8d48"/>
        <ellipse cx="296" cy="212" rx="18" ry="8" fill="#4aa657" transform="rotate(-28 296 212)"/>
        <ellipse cx="332" cy="235" rx="18" ry="8" fill="#4aa657" transform="rotate(28 332 235)"/>
        <ellipse cx="346.0" cy="140.0" rx="13.0" ry="25.0" fill="#ffd447" transform="rotate(0 346.0 140.0)"/><ellipse cx="341.7" cy="156.0" rx="13.0" ry="25.0" fill="#ffd447" transform="rotate(30 341.7 156.0)"/><ellipse cx="330.0" cy="167.7" rx="13.0" ry="25.0" fill="#ffd447" transform="rotate(60 330.0 167.7)"/><ellipse cx="314.0" cy="172.0" rx="13.0" ry="25.0" fill="#ffd447" transform="rotate(90 314.0 172.0)"/><ellipse cx="298.0" cy="167.7" rx="13.0" ry="25.0" fill="#ffd447" transform="rotate(120 298.0 167.7)"/><ellipse cx="286.3" cy="156.0" rx="13.0" ry="25.0" fill="#ffd447" transform="rotate(150 286.3 156.0)"/><ellipse cx="282.0" cy="140.0" rx="13.0" ry="25.0" fill="#ffd447" transform="rotate(180 282.0 140.0)"/><ellipse cx="286.3" cy="124.0" rx="13.0" ry="25.0" fill="#ffd447" transform="rotate(210 286.3 124.0)"/><ellipse cx="298.0" cy="112.3" rx="13.0" ry="25.0" fill="#ffd447" transform="rotate(240 298.0 112.3)"/><ellipse cx="314.0" cy="108.0" rx="13.0" ry="25.0" fill="#ffd447" transform="rotate(270 314.0 108.0)"/><ellipse cx="330.0" cy="112.3" rx="13.0" ry="25.0" fill="#ffd447" transform="rotate(300 330.0 112.3)"/><ellipse cx="341.7" cy="124.0" rx="13.0" ry="25.0" fill="#ffd447" transform="rotate(330 341.7 124.0)"/>
        <circle cx="314" cy="140" r="22.0" fill="#68411b"/>
        <circle cx="314" cy="140" r="11.0" fill="#fff0bf" opacity="0.35"/>
      </g>
      
</svg>