<svg xmlns="http://www.w3.org/2000/svg" viewBox="0 0 420 260" role="img" aria-label="Flores de girasol">
  <defs>
    <linearGradient id="sky8" x1="0" y1="0" x2="0" y2="1">
      <stop offset="0%" stop-color="#c4ebff"/>
      <stop offset="100%" stop-color="#ffffff"/>
    </linearGradient>
  </defs>
  <rect width="420" height="260" fill="url(#sky8)"/>
  <circle cx="345" cy="44" r="28" fill="#fff5b7" opacity="0.9"/>
  <rect x="0" y="180" width="420" height="80" fill="#7dc66a"/>
  <path d="M0 193 C70 165, 140 205, 210 183 S350 196, 420 176 L420 260 L0 260 Z" fill="#6db457" opacity="0.7"/>
  
      <g>
        <rect x="96" y="176" width="6" height="105" rx="3" fill="#3f8d48"/>
        <ellipse cx="81" cy="223" rx="18" ry="8" fill="#4aa657" transform="rotate(-28 81 223)"/>
        <ellipse cx="117" cy="246" rx="18" ry="8" fill="#4aa657" transform="rotate(28 117 246)"/>
        <ellipse cx="135.5" cy="151.0" rx="14.8" ry="28.5" fill="#f7bf24" transform="rotate(0 135.5 151.0)"/><ellipse cx="130.6" cy="169.2" rx="14.8" ry="28.5" fill="#f7bf24" transform="rotate(30 130.6 169.2)"/><ellipse cx="117.2" cy="182.6" rx="14.8" ry="28.5" fill="#f7bf24" transform="rotate(60 117.2 182.6)"/><ellipse cx="99.0" cy="187.5" rx="14.8" ry="28.5" fill="#f7bf24" transform="rotate(90 99.0 187.5)"/><ellipse cx="80.8" cy="182.6" rx="14.8" ry="28.5" fill="#f7bf24" transform="rotate(120 80.8 182.6)"/><ellipse cx="67.4" cy="169.2" rx="14.8" ry="28.5" fill="#f7bf24" transform="rotate(150 67.4 169.2)"/><ellipse cx="62.5" cy="151.0" rx="14.8" ry="28.5" fill="#f7bf24" transform="rotate(180 62.5 151.0)"/><ellipse cx="67.4" cy="132.8" rx="14.8" ry="28.5" fill="#f7bf24" transform="rotate(210 67.4 132.8)"/><ellipse cx="80.8" cy="119.4" rx="14.8" ry="28.5" fill="#f7bf24" transform="rotate(240 80.8 119.4)"/><ellipse cx="99.0" cy="114.5" rx="14.8" ry="28.5" fill="#f7bf24" transform="rotate(270 99.0 114.5)"/><ellipse cx="117.2" cy="119.4" rx="14.8" ry="28.5" fill="#f7bf24" transform="rotate(300 117.2 119.4)"/><ellipse cx="130.6" cy="132.8" rx="14.8" ry="28.5" fill="#f7bf24" transform="rotate(330 130.6 132.8)"/>
        <circle cx="99" cy="151" r="25.1" fill="#533218"/>
        <circle cx="99" cy="151" r="12.5" fill="#f9e59c" opacity="0.35"/>
      </g>
      
      <g>
        <rect x="203" y="171" width="6" height="105" rx="3" fill="#3f8d48"/>
        <ellipse cx="188" cy="218" rx="18" ry="8" fill="#4aa657" transform="rotate(-28 188 218)"/>
        <ellipse cx="224" cy="241" rx="18" ry="8" fill="#4aa657" transform="rotate(28 224 241)"/>
        <ellipse cx="240.4" cy="146.0" rx="14.0" ry="26.9" fill="#f7bf24" transform="rotate(0 240.4 146.0)"/><ellipse cx="235.8" cy="163.2" rx="14.0" ry="26.9" fill="#f7bf24" transform="rotate(30 235.8 163.2)"/><ellipse cx="223.2" cy="175.8" rx="14.0" ry="26.9" fill="#f7bf24" transform="rotate(60 223.2 175.8)"/><ellipse cx="206.0" cy="180.4" rx="14.0" ry="26.9" fill="#f7bf24" transform="rotate(90 206.0 180.4)"/><ellipse cx="188.8" cy="175.8" rx="14.0" ry="26.9" fill="#f7bf24" transform="rotate(120 188.8 175.8)"/><ellipse cx="176.2" cy="163.2" rx="14.0" ry="26.9" fill="#f7bf24" transform="rotate(150 176.2 163.2)"/><ellipse cx="171.6" cy="146.0" rx="14.0" ry="26.9" fill="#f7bf24" transform="rotate(180 171.6 146.0)"/><ellipse cx="176.2" cy="128.8" rx="14.0" ry="26.9" fill="#f7bf24" transform="rotate(210 176.2 128.8)"/><ellipse cx="188.8" cy="116.2" rx="14.0" ry="26.9" fill="#f7bf24" transform="rotate(240 188.8 116.2)"/><ellipse cx="206.0" cy="111.6" rx="14.0" ry="26.9" fill="#f7bf24" transform="rotate(270 206.0 111.6)"/><ellipse cx="223.2" cy="116.2" rx="14.0" ry="26.9" fill="#f7bf24" transform="rotate(300 223.2 116.2)"/><ellipse cx="235.8" cy="128.8" rx="14.0" ry="26.9" fill="#f7bf24" transform="rotate(330 235.8 128.8)"/>
        <circle cx="206" cy="146" r="23.7" fill="#533218"/>
        <circle cx="206" cy="146" r="11.8" fill="#f9e59c" opacity="0.35"/>
      </g>
      
      <g>
        <rect x="311" y="169" width="6" height="105" rx="3" fill="#3f8d48"/>
        <ellipse cx="296" cy="216" rx="18" ry="8" fill="#4aa657" transform="rotate(-28 296 216)"/>
        <ellipse cx="332" cy="239" rx="18" ry="8" fill="#4aa657" transform="rotate(28 332 239)"/>
        <ellipse cx="344.8" cy="144.0" rx="12.5" ry="24.0" fill="#f7bf24" transform="rotate(0 344.8 144.0)"/><ellipse cx="340.7" cy="159.4" rx="12.5" ry="24.0" fill="#f7bf24" transform="rotate(30 340.7 159.4)"/><ellipse cx="329.4" cy="170.7" rx="12.5" ry="24.0" fill="#f7bf24" transform="rotate(60 329.4 170.7)"/><ellipse cx="314.0" cy="174.8" rx="12.5" ry="24.0" fill="#f7bf24" transform="rotate(90 314.0 174.8)"/><ellipse cx="298.6" cy="170.7" rx="12.5" ry="24.0" fill="#f7bf24" transform="rotate(120 298.6 170.7)"/><ellipse cx="287.3" cy="159.4" rx="12.5" ry="24.0" fill="#f7bf24" transform="rotate(150 287.3 159.4)"/><ellipse cx="283.2" cy="144.0" rx="12.5" ry="24.0" fill="#f7bf24" transform="rotate(180 283.2 144.0)"/><ellipse cx="287.3" cy="128.6" rx="12.5" ry="24.0" fill="#f7bf24" transform="rotate(210 287.3 128.6)"/><ellipse cx="298.6" cy="117.3" rx="12.5" ry="24.0" fill="#f7bf24" transform="rotate(240 298.6 117.3)"/><ellipse cx="314.0" cy="113.2" rx="12.5" ry="24.0" fill="#f7bf24" transform="rotate(270 314.0 113.2)"/><ellipse cx="329.4" cy="117.3" rx="12.5" ry="24.0" fill="#f7bf24" transform="rotate(300 329.4 117.3)"/><ellipse cx="340.7" cy="128.6" rx="12.5" ry="24.0" fill="#f7bf24" transform="rotate(330 340.7 128.6)"/>
        <circle cx="314" cy="144" r="21.2" fill="#533218"/>
        <circle cx="314" cy="144" r="10.6" fill="#f9e59c" opacity="0.35"/>
      </g>
      
</svg>